<?xml version="1.0" encoding="UTF-8"?>
<!DOCTYPE svg PUBLIC "-//W3C//DTD SVG 1.1//EN" "http://www.w3.org/Graphics/SVG/1.1/DTD/svg11.dtd">
<svg xmlns="http://www.w3.org/2000/svg" version="1.1" width="512px" height="512px" style="shape-rendering:geometricPrecision; text-rendering:geometricPrecision; image-rendering:optimizeQuality; fill-rule:evenodd; clip-rule:evenodd" xmlns:xlink="http://www.w3.org/1999/xlink">
<g><path style="opacity:0.988" fill="#0054ff" d="M 248.5,-0.5 C 253.167,-0.5 257.833,-0.5 262.5,-0.5C 265.234,0.704964 267.901,2.20496 270.5,4C 326,59.5 381.5,115 437,170.5C 445.648,184.925 443.148,197.092 429.5,207C 427.5,207.667 425.5,208.333 423.5,209C 311.5,209.667 199.5,209.667 87.5,209C 72.4239,203.684 66.5905,193.184 70,177.5C 71.0804,175.004 72.4138,172.67 74,170.5C 129.5,115 185,59.5 240.5,4C 243.099,2.20496 245.766,0.704964 248.5,-0.5 Z"/></g>
<g><path style="opacity:0.994" fill="#0054ff" d="M 262.5,511.5 C 257.833,511.5 253.167,511.5 248.5,511.5C 245.766,510.295 243.099,508.795 240.5,507C 185,451.5 129.5,396 74,340.5C 65.3518,326.075 67.8518,313.908 81.5,304C 83.5,303.333 85.5,302.667 87.5,302C 199.5,301.333 311.5,301.333 423.5,302C 438.576,307.316 444.409,317.816 441,333.5C 439.92,335.996 438.586,338.33 437,340.5C 381.5,396 326,451.5 270.5,507C 267.901,508.795 265.234,510.295 262.5,511.5 Z"/></g>
</svg>
