<?xml version="1.0" encoding="UTF-8"?>
<svg version="1.1" xmlns="http://www.w3.org/2000/svg" width="512" height="512">
<path d="M0 0 C0.81096972 -0.00380567 1.62193944 -0.00761134 2.45748401 -0.01153234 C5.18022314 -0.02185469 7.90275406 -0.01794075 10.62550735 -0.01409245 C12.5952154 -0.01854449 14.56492166 -0.02385842 16.53462529 -0.02996117 C21.95172911 -0.04415549 27.36877559 -0.04580419 32.78589535 -0.04536426 C38.62653862 -0.04701119 44.46715817 -0.06007534 50.30778885 -0.07155704 C63.08042459 -0.09441514 75.85304372 -0.10232842 88.62569714 -0.10738349 C96.59960745 -0.11063933 104.57351292 -0.1171611 112.5474205 -0.12438488 C134.62147596 -0.14403157 156.69552752 -0.16043674 178.76959229 -0.16326141 C179.82853067 -0.16340251 179.82853067 -0.16340251 180.90886175 -0.16354645 C183.76978204 -0.16392493 186.63070233 -0.16428892 189.49162263 -0.16464943 C191.64491379 -0.16492115 193.79820496 -0.16519782 195.95149612 -0.16547489 C197.01879097 -0.16560693 197.01879097 -0.16560693 198.10764733 -0.16574163 C220.46383895 -0.16864701 242.81994409 -0.19074296 265.1761055 -0.22699833 C290.29405419 -0.26773152 315.41194396 -0.29142003 340.52992749 -0.29172093 C353.82898577 -0.2922016 367.12795108 -0.30082325 380.42698288 -0.32971859 C391.74995565 -0.35420722 403.07277653 -0.36153225 414.39576861 -0.34647106 C420.17322054 -0.33929216 425.95037237 -0.34020232 431.72779083 -0.36288166 C437.01799604 -0.38344958 442.30767 -0.38089132 447.59786931 -0.36000682 C449.51037602 -0.3565078 451.42292089 -0.36143929 453.33537754 -0.37571125 C472.5110882 -0.50957568 472.5110882 -0.50957568 479.824543 5.26006222 C483.74056566 9.43659768 485.94453268 13.59755003 485.95876408 19.35502815 C485.96322192 20.19208265 485.96767976 21.02913714 485.97227269 21.89155692 C485.97199615 23.27100508 485.97199615 23.27100508 485.97171402 24.67832088 C485.97539071 25.6552922 485.9790674 26.63226351 485.9828555 27.63884002 C485.9939089 30.92754369 485.99773899 34.21621578 486.00154495 37.50493526 C486.00780835 39.85690061 486.01445503 42.20886495 486.02145767 44.56082821 C486.04069665 51.62975218 486.0512877 58.69867261 486.06018546 65.76761624 C486.06456959 69.09736757 486.06993735 72.42711733 486.07517433 75.75686741 C486.09218634 86.82734217 486.10668005 97.89781595 486.11392307 108.96830177 C486.11583294 111.84086451 486.11775327 114.71342724 486.11970901 117.58598995 C486.12019276 118.29994251 486.1206765 119.01389507 486.12117489 119.74948255 C486.12947349 131.3125527 486.1548076 142.87551934 486.18728969 154.4385443 C486.22037397 166.31285029 486.23837308 178.1871037 486.24156731 190.06145602 C486.2437312 196.72732703 486.2529058 203.39306735 486.27802849 210.05889606 C486.30128348 216.33058876 486.30555258 222.60200986 486.29526711 228.87373447 C486.29477102 231.17473026 486.30111289 233.4757393 486.31482315 235.7766943 C486.33250581 238.92041727 486.32545305 242.06316175 486.31229019 245.20688534 C486.32325944 246.11536384 486.33422868 247.02384234 486.34553033 247.95985049 C486.2859645 253.86092749 485.15386157 258.32581185 481.824543 263.26006222 C479.57063675 265.31865597 479.57063675 265.31865597 477.262043 266.69756222 C476.11542191 267.40719112 476.11542191 267.40719112 474.94563675 268.13115597 C470.63810916 270.42374432 466.76998205 270.40460372 462.01822948 270.39707661 C461.2107213 270.39972843 460.40321311 270.40238026 459.57123497 270.40511245 C456.84225915 270.41282394 454.11332819 270.41336532 451.38434219 270.41396236 C449.41722449 270.41797577 447.45010762 270.42241379 445.48299176 270.42724192 C440.05912426 270.43922691 434.63526567 270.44486033 429.21138752 270.44942307 C423.36865266 270.4553719 417.52592849 270.46698356 411.68320084 270.47771358 C398.2309725 270.50109416 384.77874169 270.51564742 371.32649916 270.527943 C366.67221409 270.53219746 362.01792943 270.53677646 357.36364484 270.54152632 C332.61772935 270.56676203 307.87181339 270.58883585 283.12588787 270.60125446 C277.39189463 270.6041758 271.65790142 270.60714332 265.92390823 270.61015987 C265.21152968 270.61053078 264.49915112 270.61090169 263.76518533 270.61128384 C240.67123002 270.62343776 217.57735095 270.65437883 194.48343144 270.6960814 C170.74247437 270.73887418 147.00155757 270.76549616 123.26056089 270.77072918 C109.27826313 270.77381625 95.29606102 270.78470581 81.3137989 270.81927776 C69.97978058 270.84725547 58.64590716 270.85828756 47.31185698 270.8470823 C41.52834546 270.84188986 35.7451375 270.84482094 29.96166992 270.86954784 C24.66580166 270.89200115 19.37045571 270.89133056 14.07457853 270.87234397 C12.15996013 270.8695385 10.24530661 270.87517281 8.3307448 270.89015691 C-10.86420649 271.03118365 -10.86420649 271.03118365 -18.175457 265.26006222 C-22.09137867 261.08337391 -24.29544647 256.92266154 -24.30967808 251.16509628 C-24.31413592 250.32804179 -24.31859377 249.4909873 -24.3231867 248.62856752 C-24.32300233 247.70893541 -24.32281797 246.7893033 -24.32262802 245.84180355 C-24.32630471 244.86483224 -24.3299814 243.88786092 -24.3337695 242.88128442 C-24.3448229 239.59258075 -24.34865299 236.30390865 -24.35245895 233.01518917 C-24.35872235 230.66322383 -24.36536904 228.31125948 -24.37237167 225.95929623 C-24.39161065 218.89037225 -24.4022017 211.82145183 -24.41109946 204.75250819 C-24.41548359 201.42275687 -24.42085135 198.09300711 -24.42608833 194.76325703 C-24.44310034 183.69278226 -24.45759405 172.62230849 -24.46483707 161.55182266 C-24.46674694 158.67925992 -24.46866727 155.80669719 -24.47062302 152.93413448 C-24.47110676 152.22018193 -24.4715905 151.50622937 -24.4720889 150.77064189 C-24.48038749 139.20757174 -24.5057216 127.6446051 -24.53820369 116.08158014 C-24.57128797 104.20727415 -24.58928709 92.33302073 -24.59248132 80.45866841 C-24.5946452 73.79279741 -24.6038198 67.12705708 -24.62894249 60.46122837 C-24.65219748 54.18953567 -24.65646658 47.91811457 -24.64618111 41.64638996 C-24.64568502 39.34539417 -24.65202689 37.04438513 -24.66573715 34.74343014 C-24.68341981 31.59970716 -24.67636705 28.45696269 -24.66320419 25.3132391 C-24.67417344 24.4047606 -24.68514269 23.4962821 -24.69644433 22.56027395 C-24.63073536 16.05060716 -23.24684473 10.66644352 -18.79894429 5.73341447 C-13.17237384 0.67057612 -7.29167574 -0.03727215 0 0 Z " fill="#384463" transform="translate(25.175457000732422,120.7399377822876)"/>
<path d="M0 0 C168.3 0 336.6 0 510 0 C510 109 510 109 506 117 C503.74609375 119.05859375 503.74609375 119.05859375 501.4375 120.4375 C500.29087891 121.14712891 500.29087891 121.14712891 499.12109375 121.87109375 C494.81356616 124.1636821 490.94543905 124.14454151 486.19368649 124.13701439 C485.3861783 124.13966622 484.57867011 124.14231804 483.74669197 124.14505023 C481.01771616 124.15276172 478.2887852 124.15330311 475.55979919 124.15390015 C473.5926815 124.15791356 471.62556462 124.16235157 469.65844876 124.1671797 C464.23458126 124.1791647 458.81072267 124.18479812 453.38684452 124.18936086 C447.54410966 124.19530968 441.70138549 124.20692134 435.85865784 124.21765137 C422.4064295 124.24103194 408.95419869 124.2555852 395.50195616 124.26788078 C390.84767109 124.27213524 386.19338643 124.27671425 381.53910184 124.2814641 C356.79318635 124.30669981 332.04727039 124.32877363 307.30134487 124.34119225 C301.56735163 124.34411359 295.83335842 124.3470811 290.09936523 124.35009766 C289.38698668 124.35046857 288.67460812 124.35083947 287.94064233 124.35122162 C264.84668702 124.36337554 241.75280795 124.39431661 218.65888844 124.43601918 C194.91793137 124.47881196 171.17701457 124.50543394 147.43601789 124.51066696 C133.45372013 124.51375403 119.47151802 124.52464359 105.48925591 124.55921555 C94.15523758 124.58719325 82.82136416 124.59822534 71.48731398 124.58702008 C65.70380246 124.58182764 59.9205945 124.58475872 54.13712692 124.60948563 C48.84125866 124.63193893 43.54591271 124.63126834 38.25003553 124.61228175 C36.33541714 124.60947628 34.42076361 124.61511059 32.5062018 124.63009469 C13.31125051 124.77112143 13.31125051 124.77112143 6 119 C-21.16514775 90.02588755 0 39.71705483 0 0 Z " fill="#C74940" transform="translate(1,267)"/>
<path d="M0 0 C100.98 0 201.96 0 306 0 C306 34.32 306 68.64 306 104 C205.02 104 104.04 104 0 104 C0 69.68 0 35.36 0 0 Z " fill="#C84940" transform="translate(205,142)"/>
<path d="M0 0 C168.3 0 336.6 0 510 0 C510 47 510 47 506 55 C503.74609375 57.05859375 503.74609375 57.05859375 501.4375 58.4375 C500.29087891 59.14712891 500.29087891 59.14712891 499.12109375 59.87109375 C494.81356616 62.1636821 490.94543905 62.14454151 486.19368649 62.13701439 C485.3861783 62.13966622 484.57867011 62.14231804 483.74669197 62.14505023 C481.01771616 62.15276172 478.2887852 62.15330311 475.55979919 62.15390015 C473.5926815 62.15791356 471.62556462 62.16235157 469.65844876 62.1671797 C464.23458126 62.1791647 458.81072267 62.18479812 453.38684452 62.18936086 C447.54410966 62.19530968 441.70138549 62.20692134 435.85865784 62.21765137 C422.4064295 62.24103194 408.95419869 62.2555852 395.50195616 62.26788078 C390.84767109 62.27213524 386.19338643 62.27671425 381.53910184 62.2814641 C356.79318635 62.30669981 332.04727039 62.32877363 307.30134487 62.34119225 C301.56735163 62.34411359 295.83335842 62.3470811 290.09936523 62.35009766 C289.38698668 62.35046857 288.67460812 62.35083947 287.94064233 62.35122162 C264.84668702 62.36337554 241.75280795 62.39431661 218.65888844 62.43601918 C194.91793137 62.47881196 171.17701457 62.50543394 147.43601789 62.51066696 C133.45372013 62.51375403 119.47151802 62.52464359 105.48925591 62.55921555 C94.15523758 62.58719325 82.82136416 62.59822534 71.48731398 62.58702008 C65.70380246 62.58182764 59.9205945 62.58475872 54.13712692 62.60948563 C48.84125866 62.63193893 43.54591271 62.63126834 38.25003553 62.61228175 C36.33541714 62.60947628 34.42076361 62.61511059 32.5062018 62.63009469 C13.31125051 62.77112143 13.31125051 62.77112143 6 57 C-8.06499866 41.99839365 0 18.97181226 0 0 Z " fill="#C84940" transform="translate(1,329)"/>
<path d="M0 0 C100.98 0 201.96 0 306 0 C306 13.86 306 27.72 306 42 C205.02 42 104.04 42 0 42 C0 28.14 0 14.28 0 0 Z " fill="#C74840" transform="translate(205,142)"/>
<path d="M0 0 C168.3 0 336.6 0 510 0 C510 6.93 510 13.86 510 21 C341.7 21 173.4 21 0 21 C0 14.07 0 7.14 0 0 Z " fill="#FEFCFC" transform="translate(1,308)"/>
<path d="M0 0 C168.3 0 336.6 0 510 0 C508.71370591 11.57664679 508.71370591 11.57664679 504 16 C495.29658558 22.6829591 485.10473105 21.7009217 474.71801758 21.63491821 C472.74485207 21.64068332 470.77169193 21.64862705 468.79854298 21.65855443 C463.39034351 21.67939727 457.98258607 21.66912402 452.57438517 21.65362334 C446.73652074 21.64230338 440.89873194 21.65977578 435.06088257 21.67352295 C423.63003455 21.69575289 412.19935072 21.69095517 400.76849627 21.67645974 C391.47818832 21.66516659 382.18792637 21.66363695 372.89761353 21.66907883 C371.90681085 21.66965172 371.90681085 21.66965172 370.89599196 21.67023618 C368.21453667 21.67179292 365.53308141 21.67338492 362.85162618 21.675035 C337.70723861 21.69032349 312.56294053 21.67647304 287.41856678 21.64955051 C265.08856689 21.62582317 242.75870958 21.62794634 220.42871094 21.65185547 C195.3297631 21.67863965 170.23089431 21.68923916 145.13193417 21.67379415 C142.45541829 21.67219061 139.77890239 21.6706264 137.10238647 21.66907883 C135.78549877 21.66830745 134.46861106 21.66753607 133.11181766 21.66674132 C123.83295865 21.66242469 114.55415024 21.66971012 105.27529907 21.68147659 C93.96704211 21.69550137 82.65895868 21.69170189 71.3507216 21.66507287 C65.58135697 21.65193463 59.81228163 21.64678281 54.04291916 21.66331863 C48.76025176 21.6782305 43.47814151 21.67000898 38.19552457 21.64343087 C36.28583875 21.63785124 34.37610575 21.6406747 32.46645033 21.65280981 C12.15087076 21.77199224 12.15087076 21.77199224 4.3407011 14.44290984 C0.3523032 9.63105641 0.74318905 6.68870148 0 0 Z " fill="#C7483F" transform="translate(1,370)"/>
<path d="M0 0 C168.3 0 336.6 0 510 0 C510 6.6 510 13.2 510 20 C341.7 20 173.4 20 0 20 C0 13.4 0 6.8 0 0 Z " fill="#FFFFFF" transform="translate(1,350)"/>
<path d="M0 0 C168.3 0 336.6 0 510 0 C510 6.6 510 13.2 510 20 C341.7 20 173.4 20 0 20 C0 13.4 0 6.8 0 0 Z " fill="#FFFFFF" transform="translate(1,267)"/>
<path d="M0 0 C100.98 0 201.96 0 306 0 C306 6.93 306 13.86 306 21 C205.02 21 104.04 21 0 21 C0 14.07 0 7.14 0 0 Z " fill="#C84940" transform="translate(205,246)"/>
<path d="M0 0 C100.98 0 201.96 0 306 0 C306 6.93 306 13.86 306 21 C205.02 21 104.04 21 0 21 C0 14.07 0 7.14 0 0 Z " fill="#FEFCFC" transform="translate(205,225)"/>
<path d="M0 0 C100.98 0 201.96 0 306 0 C306 6.93 306 13.86 306 21 C205.02 21 104.04 21 0 21 C0 14.07 0 7.14 0 0 Z " fill="#FEFCFC" transform="translate(205,142)"/>
<path d="M0 0 C36.77403175 -0.11410683 73.54803197 -0.20257097 110.32220509 -0.25532665 C114.66548728 -0.26158005 119.00876912 -0.26805167 123.35205078 -0.2746582 C124.64903355 -0.27662553 124.64903355 -0.27662553 125.97221799 -0.2786326 C139.96554675 -0.30037858 153.95877261 -0.33979564 167.95204036 -0.38576398 C182.31453984 -0.43255113 196.67698549 -0.46030017 211.03955805 -0.47044247 C219.89933656 -0.47729696 228.75882422 -0.49893208 237.61851318 -0.53958233 C243.6971162 -0.56604861 249.77556925 -0.57399223 255.85422568 -0.56750689 C259.35937514 -0.56430998 262.86401699 -0.56914828 266.36907578 -0.59602737 C270.17576481 -0.62094701 273.98121494 -0.61490699 277.78793335 -0.60127258 C278.88717994 -0.61583679 279.98642653 -0.630401 281.11898363 -0.64540654 C288.95786932 -0.56964849 295.78131053 1.10565358 301.68691576 6.55722159 C305.62987426 11.40938172 305.25403499 14.28631487 306 21 C205.02 21 104.04 21 0 21 C0 14.07 0 7.14 0 0 Z " fill="#C7483F" transform="translate(205,121)"/>
<path d="M0 0 C100.98 0 201.96 0 306 0 C306 6.6 306 13.2 306 20 C205.02 20 104.04 20 0 20 C0 13.4 0 6.8 0 0 Z " fill="#FFFFFF" transform="translate(205,184)"/>
<path d="M0 0 C2 3 2 3 2 5 C3.98 5 5.96 5 8 5 C7.505 5.37125 7.01 5.7425 6.5 6.125 C4.40244486 8.74694393 4.78256165 10.73842472 5 14 C3.88625 13.814375 2.7725 13.62875 1.625 13.4375 C-1.82568861 12.68319343 -1.82568861 12.68319343 -4 14 C-3.67 12.02 -3.34 10.04 -3 8 C-4.32 7.67 -5.64 7.34 -7 7 C-7 6.34 -7 5.68 -7 5 C-5.02 5 -3.04 5 -1 5 C-0.67 3.35 -0.34 1.7 0 0 Z " fill="#E0E2E6" transform="translate(136,171)"/>
<path d="M0 0 C2 3 2 3 2 5 C3.98 5 5.96 5 8 5 C7.505 5.37125 7.01 5.7425 6.5 6.125 C4.40244486 8.74694393 4.78256165 10.73842472 5 14 C3.88625 13.814375 2.7725 13.62875 1.625 13.4375 C-1.82568861 12.68319343 -1.82568861 12.68319343 -4 14 C-3.67 12.02 -3.34 10.04 -3 8 C-4.32 7.67 -5.64 7.34 -7 7 C-7 6.34 -7 5.68 -7 5 C-5.02 5 -3.04 5 -1 5 C-0.67 3.35 -0.34 1.7 0 0 Z " fill="#E1E3E7" transform="translate(170,171)"/>
<path d="M0 0 C2 3 2 3 2 5 C3.98 5 5.96 5 8 5 C7.505 5.37125 7.01 5.7425 6.5 6.125 C4.40244486 8.74694393 4.78256165 10.73842472 5 14 C3.88625 13.814375 2.7725 13.62875 1.625 13.4375 C-1.82568861 12.68319343 -1.82568861 12.68319343 -4 14 C-3.67 12.02 -3.34 10.04 -3 8 C-4.32 7.34 -5.64 6.68 -7 6 C-7 5.67 -7 5.34 -7 5 C-5.02 5 -3.04 5 -1 5 C-0.67 3.35 -0.34 1.7 0 0 Z " fill="#E2E4E8" transform="translate(119,157)"/>
<path d="M0 0 C2 3 2 3 2 5 C3.98 5 5.96 5 8 5 C7.505 5.37125 7.01 5.7425 6.5 6.125 C4.40244486 8.74694393 4.78256165 10.73842472 5 14 C4.2575 13.62875 3.515 13.2575 2.75 12.875 C0.05716353 11.70484137 0.05716353 11.70484137 -2.3125 12.875 C-3.1478125 13.431875 -3.1478125 13.431875 -4 14 C-3.67 12.02 -3.34 10.04 -3 8 C-4.32 7.34 -5.64 6.68 -7 6 C-7 5.67 -7 5.34 -7 5 C-5.02 5 -3.04 5 -1 5 C-0.67 3.35 -0.34 1.7 0 0 Z " fill="#E3E5E9" transform="translate(34,171)"/>
<path d="M0 0 C2 3 2 3 2 5 C3.98 5 5.96 5 8 5 C7.319375 5.7425 6.63875 6.485 5.9375 7.25 C3.71646324 9.75949064 3.71646324 9.75949064 4.25 12.3125 C4.4975 12.869375 4.745 13.42625 5 14 C3.88625 13.814375 2.7725 13.62875 1.625 13.4375 C-1.82568861 12.68319343 -1.82568861 12.68319343 -4 14 C-3.67 12.02 -3.34 10.04 -3 8 C-4.32 7.34 -5.64 6.68 -7 6 C-7 5.67 -7 5.34 -7 5 C-5.02 5 -3.04 5 -1 5 C-0.67 3.35 -0.34 1.7 0 0 Z " fill="#E2E4E8" transform="translate(102,171)"/>
<path d="M0 0 C2 3 2 3 2 5 C3.98 5 5.96 5 8 5 C7.505 5.37125 7.01 5.7425 6.5 6.125 C4.40244486 8.74694393 4.78256165 10.73842472 5 14 C4.2575 13.62875 3.515 13.2575 2.75 12.875 C0.05716353 11.70484137 0.05716353 11.70484137 -2.3125 12.875 C-3.1478125 13.431875 -3.1478125 13.431875 -4 14 C-3.67 12.02 -3.34 10.04 -3 8 C-4.32 7.34 -5.64 6.68 -7 6 C-7 5.67 -7 5.34 -7 5 C-5.02 5 -3.04 5 -1 5 C-0.67 3.35 -0.34 1.7 0 0 Z " fill="#E3E5E9" transform="translate(68,171)"/>
<path d="M0 0 C2 3 2 3 2 5 C3.98 5 5.96 5 8 5 C7.505 5.37125 7.01 5.7425 6.5 6.125 C4.40244486 8.74694393 4.78256165 10.73842472 5 14 C4.2575 13.62875 3.515 13.2575 2.75 12.875 C0.05716353 11.70484137 0.05716353 11.70484137 -2.3125 12.875 C-3.1478125 13.431875 -3.1478125 13.431875 -4 14 C-3.67 12.02 -3.34 10.04 -3 8 C-4.32 7.34 -5.64 6.68 -7 6 C-7 5.67 -7 5.34 -7 5 C-5.02 5 -3.04 5 -1 5 C-0.67 3.35 -0.34 1.7 0 0 Z " fill="#E4E6EA" transform="translate(17,157)"/>
<path d="M0 0 C2 3 2 3 2 5 C3.98 5 5.96 5 8 5 C7.505 5.37125 7.01 5.7425 6.5 6.125 C4.40244486 8.74694393 4.78256165 10.73842472 5 14 C4.071875 13.62875 3.14375 13.2575 2.1875 12.875 C1.135625 12.58625 0.08375 12.2975 -1 12 C-1.99 12.66 -2.98 13.32 -4 14 C-3.67 12.02 -3.34 10.04 -3 8 C-4.32 7.34 -5.64 6.68 -7 6 C-7 5.67 -7 5.34 -7 5 C-5.02 5 -3.04 5 -1 5 C-0.67 3.35 -0.34 1.7 0 0 Z " fill="#E4E6EA" transform="translate(119,243)"/>
<path d="M0 0 C2 3 2 3 2 5 C3.98 5 5.96 5 8 5 C7.505 5.37125 7.01 5.7425 6.5 6.125 C4.40244486 8.74694393 4.78256165 10.73842472 5 14 C4.071875 13.62875 3.14375 13.2575 2.1875 12.875 C1.135625 12.58625 0.08375 12.2975 -1 12 C-1.99 12.66 -2.98 13.32 -4 14 C-3.67 12.02 -3.34 10.04 -3 8 C-4.32 7.34 -5.64 6.68 -7 6 C-7 5.67 -7 5.34 -7 5 C-5.02 5 -3.04 5 -1 5 C-0.67 3.35 -0.34 1.7 0 0 Z " fill="#E4E6EA" transform="translate(85,243)"/>
<path d="M0 0 C2 3 2 3 2 5 C3.98 5 5.96 5 8 5 C7.505 5.37125 7.01 5.7425 6.5 6.125 C4.40244486 8.74694393 4.78256165 10.73842472 5 14 C4.071875 13.62875 3.14375 13.2575 2.1875 12.875 C1.135625 12.58625 0.08375 12.2975 -1 12 C-1.99 12.66 -2.98 13.32 -4 14 C-3.67 12.02 -3.34 10.04 -3 8 C-4.32 7.34 -5.64 6.68 -7 6 C-7 5.67 -7 5.34 -7 5 C-5.02 5 -3.04 5 -1 5 C-0.67 3.35 -0.34 1.7 0 0 Z " fill="#E5E6EA" transform="translate(51,243)"/>
<path d="M0 0 C2 3 2 3 2 5 C3.98 5 5.96 5 8 5 C7.505 5.37125 7.01 5.7425 6.5 6.125 C4.40244486 8.74694393 4.78256165 10.73842472 5 14 C4.071875 13.62875 3.14375 13.2575 2.1875 12.875 C1.135625 12.58625 0.08375 12.2975 -1 12 C-1.99 12.66 -2.98 13.32 -4 14 C-3.67 12.02 -3.34 10.04 -3 8 C-4.32 7.34 -5.64 6.68 -7 6 C-7 5.67 -7 5.34 -7 5 C-5.02 5 -3.04 5 -1 5 C-0.67 3.35 -0.34 1.7 0 0 Z " fill="#E5E7EB" transform="translate(17,243)"/>
<path d="M0 0 C2 3 2 3 2 5 C3.98 5 5.96 5 8 5 C7.505 5.37125 7.01 5.7425 6.5 6.125 C4.40244486 8.74694393 4.78256165 10.73842472 5 14 C4.071875 13.62875 3.14375 13.2575 2.1875 12.875 C1.135625 12.58625 0.08375 12.2975 -1 12 C-1.99 12.66 -2.98 13.32 -4 14 C-3.67 12.02 -3.34 10.04 -3 8 C-4.32 7.34 -5.64 6.68 -7 6 C-7 5.67 -7 5.34 -7 5 C-5.824375 4.87625 -5.824375 4.87625 -4.625 4.75 C-1.85250896 4.27193661 -1.85250896 4.27193661 -0.6875 1.9375 C-0.460625 1.298125 -0.23375 0.65875 0 0 Z " fill="#E4E5E9" transform="translate(187,157)"/>
<path d="M0 0 C2 3 2 3 2 5 C3.98 5 5.96 5 8 5 C7.505 5.37125 7.01 5.7425 6.5 6.125 C4.40244486 8.74694393 4.78256165 10.73842472 5 14 C4.071875 13.62875 3.14375 13.2575 2.1875 12.875 C1.135625 12.58625 0.08375 12.2975 -1 12 C-1.99 12.66 -2.98 13.32 -4 14 C-3.67 12.02 -3.34 10.04 -3 8 C-4.32 7.34 -5.64 6.68 -7 6 C-7 5.67 -7 5.34 -7 5 C-5.02 5 -3.04 5 -1 5 C-0.67 3.35 -0.34 1.7 0 0 Z " fill="#E4E5E9" transform="translate(153,157)"/>
<path d="M0 0 C2 3 2 3 2 5 C3.98 5 5.96 5 8 5 C7.505 5.37125 7.01 5.7425 6.5 6.125 C4.40244486 8.74694393 4.78256165 10.73842472 5 14 C4.071875 13.62875 3.14375 13.2575 2.1875 12.875 C1.135625 12.58625 0.08375 12.2975 -1 12 C-1.99 12.66 -2.98 13.32 -4 14 C-3.67 12.02 -3.34 10.04 -3 8 C-4.32 7.34 -5.64 6.68 -7 6 C-7 5.67 -7 5.34 -7 5 C-5.02 5 -3.04 5 -1 5 C-0.67 3.35 -0.34 1.7 0 0 Z " fill="#E4E6EA" transform="translate(85,157)"/>
<path d="M0 0 C2 3 2 3 2 5 C3.98 5 5.96 5 8 5 C7.505 5.37125 7.01 5.7425 6.5 6.125 C4.40244486 8.74694393 4.78256165 10.73842472 5 14 C4.071875 13.62875 3.14375 13.2575 2.1875 12.875 C1.135625 12.58625 0.08375 12.2975 -1 12 C-1.99 12.66 -2.98 13.32 -4 14 C-3.67 12.02 -3.34 10.04 -3 8 C-4.32 7.34 -5.64 6.68 -7 6 C-7 5.67 -7 5.34 -7 5 C-5.02 5 -3.04 5 -1 5 C-0.67 3.35 -0.34 1.7 0 0 Z " fill="#E5E6EA" transform="translate(51,157)"/>
<path d="M0 0 C2 3 2 3 2 5 C3.98 5 5.96 5 8 5 C7.505 5.37125 7.01 5.7425 6.5 6.125 C4.40244486 8.74694393 4.78256165 10.73842472 5 14 C4.071875 13.62875 3.14375 13.2575 2.1875 12.875 C1.135625 12.58625 0.08375 12.2975 -1 12 C-1.99 12.66 -2.98 13.32 -4 14 C-3.67 12.02 -3.34 10.04 -3 8 C-4.32 7.34 -5.64 6.68 -7 6 C-7 5.67 -7 5.34 -7 5 C-5.02 5 -3.04 5 -1 5 C-0.67 3.35 -0.34 1.7 0 0 Z " fill="#E6E7EB" transform="translate(119,128)"/>
<path d="M0 0 C2 3 2 3 2 5 C3.98 5 5.96 5 8 5 C7.505 5.37125 7.01 5.7425 6.5 6.125 C4.40244486 8.74694393 4.78256165 10.73842472 5 14 C4.071875 13.62875 3.14375 13.2575 2.1875 12.875 C1.135625 12.58625 0.08375 12.2975 -1 12 C-1.99 12.66 -2.98 13.32 -4 14 C-3.67 12.02 -3.34 10.04 -3 8 C-4.32 7.34 -5.64 6.68 -7 6 C-7 5.67 -7 5.34 -7 5 C-5.02 5 -3.04 5 -1 5 C-0.67 3.35 -0.34 1.7 0 0 Z " fill="#E6E8EB" transform="translate(85,128)"/>
<path d="M0 0 C2 3 2 3 2 5 C3.98 5 5.96 5 8 5 C7.505 5.37125 7.01 5.7425 6.5 6.125 C4.40244486 8.74694393 4.78256165 10.73842472 5 14 C4.071875 13.62875 3.14375 13.2575 2.1875 12.875 C1.135625 12.58625 0.08375 12.2975 -1 12 C-1.99 12.66 -2.98 13.32 -4 14 C-3.67 12.02 -3.34 10.04 -3 8 C-4.32 7.34 -5.64 6.68 -7 6 C-7 5.67 -7 5.34 -7 5 C-5.02 5 -3.04 5 -1 5 C-0.67 3.35 -0.34 1.7 0 0 Z " fill="#E6E8EC" transform="translate(51,128)"/>
<path d="M0 0 C2 3 2 3 2 5 C3.98 5 5.96 5 8 5 C7.505 5.37125 7.01 5.7425 6.5 6.125 C4.40244486 8.74694393 4.78256165 10.73842472 5 14 C4.071875 13.62875 3.14375 13.2575 2.1875 12.875 C1.135625 12.58625 0.08375 12.2975 -1 12 C-1.99 12.66 -2.98 13.32 -4 14 C-3.67 12.02 -3.34 10.04 -3 8 C-4.32 7.34 -5.64 6.68 -7 6 C-7 5.67 -7 5.34 -7 5 C-5.02 5 -3.04 5 -1 5 C-0.67 3.35 -0.34 1.7 0 0 Z " fill="#E7E8EC" transform="translate(17,128)"/>
<path d="M0 0 C2 3 2 3 2 5 C3.98 5 5.96 5 8 5 C7.525625 5.391875 7.05125 5.78375 6.5625 6.1875 C4.64820367 8.40808374 4.38733012 10.13375709 4 13 C2.88625 12.690625 2.88625 12.690625 1.75 12.375 C-1.32330841 11.95591249 -2.42786866 12.38050989 -5 14 C-4.34 12.02 -3.68 10.04 -3 8 C-4.32 7.34 -5.64 6.68 -7 6 C-7 5.67 -7 5.34 -7 5 C-5.824375 4.87625 -5.824375 4.87625 -4.625 4.75 C-1.85250896 4.27193661 -1.85250896 4.27193661 -0.6875 1.9375 C-0.460625 1.298125 -0.23375 0.65875 0 0 Z " fill="#E6E8EB" transform="translate(153,128)"/>
<path d="M0 0 C2 3 2 3 2 5 C3.65 5 5.3 5 7 5 C6.01 6.485 6.01 6.485 5 8 C4.83300768 11.12521833 4.83300768 11.12521833 5 14 C4.0925 13.62875 3.185 13.2575 2.25 12.875 C-0.88097015 11.69640701 -0.88097015 11.69640701 -3.375 12.875 C-3.91125 13.24625 -4.4475 13.6175 -5 14 C-4.773125 13.071875 -4.54625 12.14375 -4.3125 11.1875 C-3.63680017 8.03173152 -3.63680017 8.03173152 -5.4375 6.125 C-5.953125 5.75375 -6.46875 5.3825 -7 5 C-5.824375 4.87625 -5.824375 4.87625 -4.625 4.75 C-1.85250896 4.27193661 -1.85250896 4.27193661 -0.6875 1.9375 C-0.460625 1.298125 -0.23375 0.65875 0 0 Z " fill="#EAECEF" transform="translate(85,186)"/>
<path d="M0 0 C2 3 2 3 2 5 C3.98 5 5.96 5 8 5 C7.525625 5.391875 7.05125 5.78375 6.5625 6.1875 C4.64820367 8.40808374 4.38733012 10.13375709 4 13 C2.88625 12.690625 2.88625 12.690625 1.75 12.375 C-1.32330841 11.95591249 -2.42786866 12.38050989 -5 14 C-4.34 12.02 -3.68 10.04 -3 8 C-4.32 7.34 -5.64 6.68 -7 6 C-7 5.67 -7 5.34 -7 5 C-5.824375 4.87625 -5.824375 4.87625 -4.625 4.75 C-1.85250896 4.27193661 -1.85250896 4.27193661 -0.6875 1.9375 C-0.460625 1.298125 -0.23375 0.65875 0 0 Z " fill="#E7E9EC" transform="translate(187,128)"/>
<path d="M0 0 C2 3 2 3 2 5 C3.65 5 5.3 5 7 5 C6.01 6.485 6.01 6.485 5 8 C4.61500109 9.65549531 4.27206865 11.3222433 4 13 C2.88625 12.690625 2.88625 12.690625 1.75 12.375 C-1.32330841 11.95591249 -2.42786866 12.38050989 -5 14 C-4.34 12.02 -3.68 10.04 -3 8 C-4.32 7.34 -5.64 6.68 -7 6 C-7 5.67 -7 5.34 -7 5 C-5.824375 4.87625 -5.824375 4.87625 -4.625 4.75 C-1.85250896 4.27193661 -1.85250896 4.27193661 -0.6875 1.9375 C-0.460625 1.298125 -0.23375 0.65875 0 0 Z " fill="#E7E9EC" transform="translate(187,243)"/>
<path d="M0 0 C2 3 2 3 2 5 C3.65 5 5.3 5 7 5 C6.01 6.485 6.01 6.485 5 8 C4.61500109 9.65549531 4.27206865 11.3222433 4 13 C2.88625 12.690625 2.88625 12.690625 1.75 12.375 C-1.32330841 11.95591249 -2.42786866 12.38050989 -5 14 C-4.34 12.02 -3.68 10.04 -3 8 C-4.32 7.34 -5.64 6.68 -7 6 C-7 5.67 -7 5.34 -7 5 C-5.824375 4.87625 -5.824375 4.87625 -4.625 4.75 C-1.85250896 4.27193661 -1.85250896 4.27193661 -0.6875 1.9375 C-0.460625 1.298125 -0.23375 0.65875 0 0 Z " fill="#E7E8EC" transform="translate(153,243)"/>
<path d="M0 0 C2 3 2 3 2 5 C3.65 5 5.3 5 7 5 C6.01 6.485 6.01 6.485 5 8 C4.83300768 11.12521833 4.83300768 11.12521833 5 14 C4.0925 13.62875 3.185 13.2575 2.25 12.875 C-0.88097015 11.69640701 -0.88097015 11.69640701 -3.375 12.875 C-3.91125 13.24625 -4.4475 13.6175 -5 14 C-4.773125 13.071875 -4.54625 12.14375 -4.3125 11.1875 C-3.63680017 8.03173152 -3.63680017 8.03173152 -5.4375 6.125 C-5.953125 5.75375 -6.46875 5.3825 -7 5 C-5.824375 4.87625 -5.824375 4.87625 -4.625 4.75 C-1.85250896 4.27193661 -1.85250896 4.27193661 -0.6875 1.9375 C-0.460625 1.298125 -0.23375 0.65875 0 0 Z " fill="#EBECEF" transform="translate(102,200)"/>
<path d="M0 0 C0.66 0 1.32 0 2 0 C2.33 1.65 2.66 3.3 3 5 C4.65 5 6.3 5 8 5 C7.01 6.485 7.01 6.485 6 8 C5.34 8 4.68 8 4 8 C4.66 9.98 5.32 11.96 6 14 C5.0925 13.62875 4.185 13.2575 3.25 12.875 C0.11902985 11.69640701 0.11902985 11.69640701 -2.375 12.875 C-2.91125 13.24625 -3.4475 13.6175 -4 14 C-3.773125 13.071875 -3.54625 12.14375 -3.3125 11.1875 C-2.63680017 8.03173152 -2.63680017 8.03173152 -4.4375 6.125 C-4.953125 5.75375 -5.46875 5.3825 -6 5 C-4.35 4.67 -2.7 4.34 -1 4 C-0.67 2.68 -0.34 1.36 0 0 Z " fill="#EAECEF" transform="translate(186,186)"/>
<path d="M0 0 C2 3 2 3 2 5 C3.65 5 5.3 5 7 5 C6.01 6.485 6.01 6.485 5 8 C4.83300768 11.12521833 4.83300768 11.12521833 5 14 C4.0925 13.62875 3.185 13.2575 2.25 12.875 C-0.88097015 11.69640701 -0.88097015 11.69640701 -3.375 12.875 C-3.91125 13.24625 -4.4475 13.6175 -5 14 C-4.773125 13.071875 -4.54625 12.14375 -4.3125 11.1875 C-3.63680017 8.03173152 -3.63680017 8.03173152 -5.4375 6.125 C-5.953125 5.75375 -6.46875 5.3825 -7 5 C-5.02 5 -3.04 5 -1 5 C-0.67 3.35 -0.34 1.7 0 0 Z " fill="#EBECEF" transform="translate(51,186)"/>
<path d="M0 0 C2 3 2 3 2 5 C3.98 5 5.96 5 8 5 C7.505 5.37125 7.01 5.7425 6.5 6.125 C4.40244486 8.74694393 4.78256165 10.73842472 5 14 C4.0925 13.62875 3.185 13.2575 2.25 12.875 C-0.88097015 11.69640701 -0.88097015 11.69640701 -3.375 12.875 C-3.91125 13.24625 -4.4475 13.6175 -5 14 C-4.773125 13.071875 -4.54625 12.14375 -4.3125 11.1875 C-3.63680017 8.03173152 -3.63680017 8.03173152 -5.4375 6.125 C-5.953125 5.75375 -6.46875 5.3825 -7 5 C-5.02 5 -3.04 5 -1 5 C-0.67 3.35 -0.34 1.7 0 0 Z " fill="#ECEDF0" transform="translate(17,186)"/>
<path d="M0 0 C2 3 2 3 2 5 C3.65 5 5.3 5 7 5 C6.01 6.485 6.01 6.485 5 8 C4.34 8 3.68 8 3 8 C3.66 9.98 4.32 11.96 5 14 C4.0925 13.62875 3.185 13.2575 2.25 12.875 C-0.88097015 11.69640701 -0.88097015 11.69640701 -3.375 12.875 C-3.91125 13.24625 -4.4475 13.6175 -5 14 C-4.773125 13.071875 -4.54625 12.14375 -4.3125 11.1875 C-3.63680017 8.03173152 -3.63680017 8.03173152 -5.4375 6.125 C-5.953125 5.75375 -6.46875 5.3825 -7 5 C-5.824375 4.87625 -5.824375 4.87625 -4.625 4.75 C-1.85250896 4.27193661 -1.85250896 4.27193661 -0.6875 1.9375 C-0.460625 1.298125 -0.23375 0.65875 0 0 Z " fill="#EBECEF" transform="translate(170,200)"/>
<path d="M0 0 C2 3 2 3 2 5 C3.65 5 5.3 5 7 5 C6.01 6.485 6.01 6.485 5 8 C4.34 8 3.68 8 3 8 C3.66 9.98 4.32 11.96 5 14 C4.0925 13.62875 3.185 13.2575 2.25 12.875 C-0.88097015 11.69640701 -0.88097015 11.69640701 -3.375 12.875 C-3.91125 13.24625 -4.4475 13.6175 -5 14 C-4.773125 13.071875 -4.54625 12.14375 -4.3125 11.1875 C-3.63680017 8.03173152 -3.63680017 8.03173152 -5.4375 6.125 C-5.953125 5.75375 -6.46875 5.3825 -7 5 C-5.824375 4.87625 -5.824375 4.87625 -4.625 4.75 C-1.85250896 4.27193661 -1.85250896 4.27193661 -0.6875 1.9375 C-0.460625 1.298125 -0.23375 0.65875 0 0 Z " fill="#EBEDEF" transform="translate(136,200)"/>
<path d="M0 0 C2 3 2 3 2 5 C3.65 5 5.3 5 7 5 C6.01 6.485 6.01 6.485 5 8 C4.83300768 11.12521833 4.83300768 11.12521833 5 14 C4.0925 13.62875 3.185 13.2575 2.25 12.875 C-0.88097015 11.69640701 -0.88097015 11.69640701 -3.375 12.875 C-3.91125 13.24625 -4.4475 13.6175 -5 14 C-4.773125 13.071875 -4.54625 12.14375 -4.3125 11.1875 C-3.63680017 8.03173152 -3.63680017 8.03173152 -5.4375 6.125 C-5.953125 5.75375 -6.46875 5.3825 -7 5 C-5.02 5 -3.04 5 -1 5 C-0.67 3.35 -0.34 1.7 0 0 Z " fill="#ECEDF0" transform="translate(68,200)"/>
<path d="M0 0 C2 3 2 3 2 5 C3.65 5 5.3 5 7 5 C6.01 6.485 6.01 6.485 5 8 C4.83300768 11.12521833 4.83300768 11.12521833 5 14 C4.0925 13.62875 3.185 13.2575 2.25 12.875 C-0.88097015 11.69640701 -0.88097015 11.69640701 -3.375 12.875 C-3.91125 13.24625 -4.4475 13.6175 -5 14 C-4.773125 13.071875 -4.54625 12.14375 -4.3125 11.1875 C-3.63680017 8.03173152 -3.63680017 8.03173152 -5.4375 6.125 C-5.953125 5.75375 -6.46875 5.3825 -7 5 C-5.02 5 -3.04 5 -1 5 C-0.67 3.35 -0.34 1.7 0 0 Z " fill="#ECEDF0" transform="translate(34,200)"/>
<path d="M0 0 C2 3 2 3 2 5 C3.65 5 5.3 5 7 5 C6.01 6.485 6.01 6.485 5 8 C4.34 8 3.68 8 3 8 C3.66 9.98 4.32 11.96 5 14 C4.0925 13.62875 3.185 13.2575 2.25 12.875 C-0.88097015 11.69640701 -0.88097015 11.69640701 -3.375 12.875 C-3.91125 13.24625 -4.4475 13.6175 -5 14 C-4.773125 13.071875 -4.54625 12.14375 -4.3125 11.1875 C-3.63680017 8.03173152 -3.63680017 8.03173152 -5.4375 6.125 C-5.953125 5.75375 -6.46875 5.3825 -7 5 C-5.824375 4.87625 -5.824375 4.87625 -4.625 4.75 C-1.85250896 4.27193661 -1.85250896 4.27193661 -0.6875 1.9375 C-0.460625 1.298125 -0.23375 0.65875 0 0 Z " fill="#ECEDF0" transform="translate(153,186)"/>
<path d="M0 0 C2 3 2 3 2 5 C3.65 5 5.3 5 7 5 C6.01 6.485 6.01 6.485 5 8 C4.34 8 3.68 8 3 8 C3.66 9.98 4.32 11.96 5 14 C4.0925 13.62875 3.185 13.2575 2.25 12.875 C-0.88097015 11.69640701 -0.88097015 11.69640701 -3.375 12.875 C-3.91125 13.24625 -4.4475 13.6175 -5 14 C-4.773125 13.071875 -4.54625 12.14375 -4.3125 11.1875 C-3.63680017 8.03173152 -3.63680017 8.03173152 -5.4375 6.125 C-5.953125 5.75375 -6.46875 5.3825 -7 5 C-5.824375 4.87625 -5.824375 4.87625 -4.625 4.75 C-1.85250896 4.27193661 -1.85250896 4.27193661 -0.6875 1.9375 C-0.460625 1.298125 -0.23375 0.65875 0 0 Z " fill="#ECEDF0" transform="translate(119,186)"/>
<path d="M0 0 C2 3 2 3 2 6 C3.65 6 5.3 6 7 6 C6.67 6.66 6.34 7.32 6 8 C5.34 8 4.68 8 4 8 C4.33 10.31 4.66 12.62 5 15 C4.01 14.34 3.02 13.68 2 13 C-1.14221967 13.31506627 -1.14221967 13.31506627 -4 14 C-3.95875 13.236875 -3.9175 12.47375 -3.875 11.6875 C-3.77919176 8.77281584 -3.77919176 8.77281584 -6 6 C-5.38125 5.938125 -4.7625 5.87625 -4.125 5.8125 C-1.72238859 5.171081 -1.72238859 5.171081 -0.75 2.4375 C-0.5025 1.633125 -0.255 0.82875 0 0 Z " fill="#E7E9ED" transform="translate(51,214)"/>
<path d="M0 0 C2 2 2 2 2 5 C3.65 5 5.3 5 7 5 C6.67 5.66 6.34 6.32 6 7 C5.34 7 4.68 7 4 7 C4.33 9.31 4.66 11.62 5 14 C4.01 13.34 3.02 12.68 2 12 C-1.14221967 12.31506627 -1.14221967 12.31506627 -4 13 C-3.95875 12.236875 -3.9175 11.47375 -3.875 10.6875 C-3.77919176 7.77281584 -3.77919176 7.77281584 -6 5 C-5.38125 4.9175 -4.7625 4.835 -4.125 4.75 C-1.81562433 4.18741541 -1.81562433 4.18741541 -0.75 1.9375 C-0.5025 1.298125 -0.255 0.65875 0 0 Z " fill="#EAEBEF" transform="translate(34,229)"/>
<path d="M0 0 C0.66 0 1.32 0 2 0 C2.33 1.65 2.66 3.3 3 5 C4.65 5 6.3 5 8 5 C7.484375 5.556875 6.96875 6.11375 6.4375 6.6875 C4.70523302 8.94085007 4.70523302 8.94085007 5.3125 11.75 C5.6528125 12.86375 5.6528125 12.86375 6 14 C5.071875 13.649375 4.14375 13.29875 3.1875 12.9375 C0.0197047 11.67617372 0.0197047 11.67617372 -3 13 C-2.938125 12.236875 -2.87625 11.47375 -2.8125 10.6875 C-2.74101915 7.95474688 -2.74101915 7.95474688 -4.5 6.1875 C-4.995 5.795625 -5.49 5.40375 -6 5 C-4.35 4.67 -2.7 4.34 -1 4 C-0.67 2.68 -0.34 1.36 0 0 Z " fill="#ECEDF0" transform="translate(169,143)"/>
<path d="M0 0 C2 2 2 2 2 5 C3.65 5 5.3 5 7 5 C6.67 5.66 6.34 6.32 6 7 C5.34 7 4.68 7 4 7 C4.33 9.31 4.66 11.62 5 14 C4.01 13.34 3.02 12.68 2 12 C-1.14221967 12.31506627 -1.14221967 12.31506627 -4 13 C-3.95875 12.236875 -3.9175 11.47375 -3.875 10.6875 C-3.77919176 7.77281584 -3.77919176 7.77281584 -6 5 C-5.38125 4.9175 -4.7625 4.835 -4.125 4.75 C-1.81562433 4.18741541 -1.81562433 4.18741541 -0.75 1.9375 C-0.5025 1.298125 -0.255 0.65875 0 0 Z " fill="#EBEDF0" transform="translate(68,229)"/>
<path d="M0 0 C0.66 0 1.32 0 2 0 C2.33 1.65 2.66 3.3 3 5 C4.65 5 6.3 5 8 5 C7.67 5.66 7.34 6.32 7 7 C6.34 7 5.68 7 5 7 C5.33 9.31 5.66 11.62 6 14 C5.01 13.34 4.02 12.68 3 12 C-0.14221967 12.31506627 -0.14221967 12.31506627 -3 13 C-2.95875 12.236875 -2.9175 11.47375 -2.875 10.6875 C-2.77919176 7.77281584 -2.77919176 7.77281584 -5 5 C-3.68 4.67 -2.36 4.34 -1 4 C-0.67 2.68 -0.34 1.36 0 0 Z " fill="#EAEBEF" transform="translate(84,215)"/>
<path d="M0 0 C2 2 2 2 2 5 C3.65 5 5.3 5 7 5 C6.67 5.66 6.34 6.32 6 7 C5.34 7 4.68 7 4 7 C4.33 9.31 4.66 11.62 5 14 C4.01 13.34 3.02 12.68 2 12 C-1.14221967 12.31506627 -1.14221967 12.31506627 -4 13 C-3.95875 12.236875 -3.9175 11.47375 -3.875 10.6875 C-3.77919176 7.77281584 -3.77919176 7.77281584 -6 5 C-5.38125 4.9175 -4.7625 4.835 -4.125 4.75 C-1.81562433 4.18741541 -1.81562433 4.18741541 -0.75 1.9375 C-0.5025 1.298125 -0.255 0.65875 0 0 Z " fill="#EAECEF" transform="translate(17,215)"/>
<path d="M0 0 C2 3 2 3 2 6 C3.65 6 5.3 6 7 6 C6.484375 6.37125 5.96875 6.7425 5.4375 7.125 C3.63680017 9.03173152 3.63680017 9.03173152 4.3125 12.1875 C4.6528125 13.5796875 4.6528125 13.5796875 5 15 C4.01 14.34 3.02 13.68 2 13 C-1.14221967 13.31506627 -1.14221967 13.31506627 -4 14 C-3.95875 13.236875 -3.9175 12.47375 -3.875 11.6875 C-3.77919176 8.77281584 -3.77919176 8.77281584 -6 6 C-5.38125 5.938125 -4.7625 5.87625 -4.125 5.8125 C-1.72238859 5.171081 -1.72238859 5.171081 -0.75 2.4375 C-0.5025 1.633125 -0.255 0.82875 0 0 Z " fill="#EBECEF" transform="translate(119,214)"/>
<path d="M0 0 C0.66 0 1.32 0 2 0 C2.33 1.65 2.66 3.3 3 5 C4.65 5 6.3 5 8 5 C7.484375 5.556875 6.96875 6.11375 6.4375 6.6875 C4.70523302 8.94085007 4.70523302 8.94085007 5.3125 11.75 C5.6528125 12.86375 5.6528125 12.86375 6 14 C5.01 13.34 4.02 12.68 3 12 C-0.14221967 12.31506627 -0.14221967 12.31506627 -3 13 C-2.95875 12.236875 -2.9175 11.47375 -2.875 10.6875 C-2.77919176 7.77281584 -2.77919176 7.77281584 -5 5 C-3.68 4.67 -2.36 4.34 -1 4 C-0.67 2.68 -0.34 1.36 0 0 Z " fill="#EBEDEF" transform="translate(152,215)"/>
<path d="M0 0 C2 3 2 3 2 5 C3.65 5 5.3 5 7 5 C6.484375 5.556875 5.96875 6.11375 5.4375 6.6875 C3.70523302 8.94085007 3.70523302 8.94085007 4.3125 11.75 C4.6528125 12.86375 4.6528125 12.86375 5 14 C4.01 13.34 3.02 12.68 2 12 C-1.14221967 12.31506627 -1.14221967 12.31506627 -4 13 C-3.938125 12.236875 -3.87625 11.47375 -3.8125 10.6875 C-3.74101915 7.95474688 -3.74101915 7.95474688 -5.5 6.1875 C-5.995 5.795625 -6.49 5.40375 -7 5 C-5.824375 4.87625 -5.824375 4.87625 -4.625 4.75 C-1.85250896 4.27193661 -1.85250896 4.27193661 -0.6875 1.9375 C-0.460625 1.298125 -0.23375 0.65875 0 0 Z " fill="#EFF0F2" transform="translate(136,143)"/>
<path d="M0 0 C2 2 2 2 2 5 C3.65 5 5.3 5 7 5 C6.484375 5.37125 5.96875 5.7425 5.4375 6.125 C3.63680017 8.03173152 3.63680017 8.03173152 4.3125 11.1875 C4.6528125 12.5796875 4.6528125 12.5796875 5 14 C4.01 13.34 3.02 12.68 2 12 C-1.14221967 12.31506627 -1.14221967 12.31506627 -4 13 C-3.938125 12.236875 -3.87625 11.47375 -3.8125 10.6875 C-3.74101915 7.95474688 -3.74101915 7.95474688 -5.5 6.1875 C-5.995 5.795625 -6.49 5.40375 -7 5 C-5.824375 4.87625 -5.824375 4.87625 -4.625 4.75 C-1.85250896 4.27193661 -1.85250896 4.27193661 -0.6875 1.9375 C-0.460625 1.298125 -0.23375 0.65875 0 0 Z " fill="#EEEFF2" transform="translate(68,143)"/>
<path d="M0 0 C0.66 0 1.32 0 2 0 C2.33 1.65 2.66 3.3 3 5 C4.65 5 6.3 5 8 5 C7.484375 5.556875 6.96875 6.11375 6.4375 6.6875 C4.70523302 8.94085007 4.70523302 8.94085007 5.3125 11.75 C5.6528125 12.86375 5.6528125 12.86375 6 14 C5.01 13.34 4.02 12.68 3 12 C-0.14221967 12.31506627 -0.14221967 12.31506627 -3 13 C-2.95875 12.236875 -2.9175 11.47375 -2.875 10.6875 C-2.77919176 7.77281584 -2.77919176 7.77281584 -5 5 C-3.68 4.67 -2.36 4.34 -1 4 C-0.67 2.68 -0.34 1.36 0 0 Z " fill="#EEEFF2" transform="translate(169,229)"/>
<path d="M0 0 C2 3 2 3 2 5 C3.65 5 5.3 5 7 5 C6.484375 5.37125 5.96875 5.7425 5.4375 6.125 C3.63680017 8.03173152 3.63680017 8.03173152 4.3125 11.1875 C4.6528125 12.5796875 4.6528125 12.5796875 5 14 C4.01 13.34 3.02 12.68 2 12 C-1.14221967 12.31506627 -1.14221967 12.31506627 -4 13 C-3.938125 12.236875 -3.87625 11.47375 -3.8125 10.6875 C-3.74101915 7.95474688 -3.74101915 7.95474688 -5.5 6.1875 C-5.995 5.795625 -6.49 5.40375 -7 5 C-5.824375 4.87625 -5.824375 4.87625 -4.625 4.75 C-1.85250896 4.27193661 -1.85250896 4.27193661 -0.6875 1.9375 C-0.460625 1.298125 -0.23375 0.65875 0 0 Z " fill="#F0F0F3" transform="translate(102,143)"/>
<path d="M0 0 C2 2 2 2 2 5 C3.65 5 5.3 5 7 5 C6.484375 5.37125 5.96875 5.7425 5.4375 6.125 C3.63680017 8.03173152 3.63680017 8.03173152 4.3125 11.1875 C4.6528125 12.5796875 4.6528125 12.5796875 5 14 C4.01 13.34 3.02 12.68 2 12 C-1.14221967 12.31506627 -1.14221967 12.31506627 -4 13 C-3.95875 12.236875 -3.9175 11.47375 -3.875 10.6875 C-3.77919176 7.77281584 -3.77919176 7.77281584 -6 5 C-5.38125 4.9175 -4.7625 4.835 -4.125 4.75 C-1.81562433 4.18741541 -1.81562433 4.18741541 -0.75 1.9375 C-0.5025 1.298125 -0.255 0.65875 0 0 Z " fill="#EFF0F2" transform="translate(34,143)"/>
<path d="M0 0 C0.66 0 1.32 0 2 0 C2.33 1.65 2.66 3.3 3 5 C4.65 5 6.3 5 8 5 C7.484375 5.37125 6.96875 5.7425 6.4375 6.125 C4.63680017 8.03173152 4.63680017 8.03173152 5.3125 11.1875 C5.6528125 12.5796875 5.6528125 12.5796875 6 14 C5.01 13.34 4.02 12.68 3 12 C-0.14221967 12.31506627 -0.14221967 12.31506627 -3 13 C-2.95875 12.236875 -2.9175 11.47375 -2.875 10.6875 C-2.77919176 7.77281584 -2.77919176 7.77281584 -5 5 C-3.68 4.67 -2.36 4.34 -1 4 C-0.67 2.68 -0.34 1.36 0 0 Z " fill="#EFF0F2" transform="translate(135,229)"/>
<path d="M0 0 C2 2 2 2 2 5 C3.65 5 5.3 5 7 5 C6.484375 5.37125 5.96875 5.7425 5.4375 6.125 C3.63680017 8.03173152 3.63680017 8.03173152 4.3125 11.1875 C4.6528125 12.5796875 4.6528125 12.5796875 5 14 C4.01 13.34 3.02 12.68 2 12 C-1.14221967 12.31506627 -1.14221967 12.31506627 -4 13 C-3.95875 12.236875 -3.9175 11.47375 -3.875 10.6875 C-3.77919176 7.77281584 -3.77919176 7.77281584 -6 5 C-5.38125 4.9175 -4.7625 4.835 -4.125 4.75 C-1.81562433 4.18741541 -1.81562433 4.18741541 -0.75 1.9375 C-0.5025 1.298125 -0.255 0.65875 0 0 Z " fill="#EFF0F2" transform="translate(102,229)"/>
<path d="M0 0 C0.66 0 1.32 0 2 0 C2.33 1.65 2.66 3.3 3 5 C4.65 5 6.3 5 8 5 C7.2884375 5.86625 7.2884375 5.86625 6.5625 6.75 C5.0515133 8.92582084 4.45963849 10.42602448 4 13 C3.401875 12.814375 2.80375 12.62875 2.1875 12.4375 C-0.16408762 11.77906313 -0.16408762 11.77906313 -3 13 C-2.95875 12.236875 -2.9175 11.47375 -2.875 10.6875 C-2.77919176 7.77281584 -2.77919176 7.77281584 -5 5 C-3.68 4.67 -2.36 4.34 -1 4 C-0.67 2.68 -0.34 1.36 0 0 Z " fill="#EFF0F2" transform="translate(186,215)"/>
</svg>
