<?xml version="1.0" encoding="UTF-8"?>
<svg version="1.1" xmlns="http://www.w3.org/2000/svg" width="512" height="512">
<path d="M0 0 C1.85796948 -0.00461485 3.71593529 -0.01097167 5.57389355 -0.01890898 C10.65442257 -0.03554515 15.7346495 -0.02738193 20.81517935 -0.0149641 C26.30402221 -0.00589252 31.79281408 -0.0198938 37.28164673 -0.03088379 C48.02439246 -0.04865107 58.76702627 -0.04483697 69.50977635 -0.03323323 C78.2422345 -0.02419215 86.97466132 -0.02297783 95.7071228 -0.02732849 C96.95094481 -0.02794142 98.19476681 -0.02855436 99.47628039 -0.02918586 C102.00324322 -0.03046479 104.53020603 -0.03176164 107.05716884 -0.03307623 C130.06619019 -0.04415192 153.07516202 -0.03267463 176.08417122 -0.01170584 C197.07185317 0.00727545 218.05943803 0.00557689 239.04711914 -0.0135498 C262.6474587 -0.0349858 286.24775694 -0.04337819 309.84810734 -0.03110075 C312.36566733 -0.02982658 314.88322734 -0.0285691 317.40078735 -0.02732849 C319.25871919 -0.02640284 319.25871919 -0.02640284 321.154185 -0.02545848 C329.87407403 -0.02200777 338.59392857 -0.02782795 347.31381226 -0.0372467 C357.9434197 -0.04847608 368.57290902 -0.04540679 379.20250297 -0.02412373 C384.62375243 -0.01362607 390.04480509 -0.00946972 395.46605301 -0.02272034 C400.43287476 -0.03467646 405.39931805 -0.02802853 410.36610568 -0.00681013 C412.15867701 -0.00235772 413.9512806 -0.00457958 415.74383104 -0.01431328 C429.16371376 -0.08157025 440.69958268 1.02141105 451.29223633 10.16418457 C460.46112217 19.66562067 462.85913728 29.00228931 462.82138062 41.75372314 C462.82591173 42.87900335 462.83044284 44.00428355 462.83511126 45.16366315 C462.84776121 48.93048038 462.84613447 52.69715314 462.84448242 56.46398926 C462.84938141 59.16635685 462.85721632 61.86871434 462.86483765 64.57107544 C462.88142639 71.14781855 462.88694624 77.72452581 462.8880624 84.3012881 C462.88901393 89.64952571 462.89312946 94.99775153 462.89946365 100.34598541 C462.91707063 115.52206991 462.92630343 130.69812616 462.92480271 145.87422094 C462.92468284 147.10056544 462.92468284 147.10056544 462.92456055 148.35168457 C462.92447879 149.17025032 462.92439702 149.98881607 462.92431279 150.83218685 C462.92350014 164.09367173 462.94263367 177.35504296 462.97083728 190.61649498 C462.9995937 204.24585736 463.01337604 217.87516437 463.01164973 231.50455785 C463.01098676 239.15134943 463.01643822 246.79802188 463.03800583 254.44478607 C463.05625403 260.95620163 463.06053527 267.46744406 463.04698698 273.97887418 C463.04047526 277.29786885 463.04246509 280.6162619 463.05769348 283.9352684 C463.07316664 287.54187697 463.06382274 291.147621 463.0484314 294.75421143 C463.05871852 295.79129706 463.06900565 296.8283827 463.07960451 297.89689517 C462.97972502 308.52817773 459.73316677 317.2051222 452.82348633 325.28137207 C441.5720265 336.31980942 428.2774429 336.94974141 413.46194458 336.89561462 C411.60585326 336.89978992 409.7497645 336.90526851 407.89368045 336.91193444 C402.80449211 336.92638202 397.71546581 336.92214642 392.62626863 336.91476762 C387.13330711 336.91003657 381.64038068 336.92254526 376.14743042 336.93278503 C365.3905918 336.94997963 354.63381159 336.95081166 343.8769628 336.94557213 C335.13346269 336.9415304 326.38997984 336.94297403 317.64648056 336.94832039 C316.40196336 336.94906881 315.15744617 336.94981723 313.87521633 336.95058833 C311.34696317 336.95211981 308.81871002 336.95365816 306.29045688 336.9552033 C289.31582424 336.96503172 272.34119786 336.96919618 255.3665638 336.96157742 C254.37129044 336.96113166 254.37129044 336.96113166 253.35591055 336.96067689 C247.96799289 336.95822805 242.5800753 336.95561642 237.19215772 336.95299276 C216.17812362 336.94289129 195.16416944 336.95124492 174.15014648 336.9744873 C150.52933315 337.00057077 126.90855594 337.0133554 103.28772533 337.00629956 C90.78514619 337.00280616 78.28263267 337.0050474 65.78006363 337.02255058 C55.13681954 337.037266 44.49368728 337.03791656 33.8504454 337.02047967 C28.42123568 337.01196192 22.99222578 337.00983924 17.56302643 337.02513123 C12.58997582 337.0389649 7.61729648 337.03423191 2.64426742 337.01489199 C0.8482568 337.01112765 -0.94778348 337.01406644 -2.74376772 337.02450364 C-16.03382881 337.09622654 -28.07810928 335.68175697 -38.44604492 326.50793457 C-47.12493747 316.71948133 -49.90818098 307.90803889 -49.83372498 295.02163696 C-49.83911051 293.89464791 -49.84449605 292.76765886 -49.85004479 291.60651863 C-49.86430469 287.84584303 -49.85722524 284.08552039 -49.85009766 280.3248291 C-49.85416034 277.6221628 -49.8626667 274.9195143 -49.87089539 272.21685791 C-49.888055 265.6470524 -49.88892928 259.07734266 -49.88368248 252.50752057 C-49.87963409 247.16504695 -49.88109228 241.82260153 -49.88643074 236.48012924 C-49.88717916 235.7185249 -49.88792758 234.95692056 -49.88869869 234.1722373 C-49.89023023 232.62482214 -49.89176858 231.07740699 -49.89331365 229.52999185 C-49.90702854 215.03205303 -49.90160823 200.53416824 -49.89012844 186.03623067 C-49.8801981 172.78780108 -49.89313505 159.53951119 -49.91706263 146.29110314 C-49.94147573 132.67071111 -49.95105602 119.05038408 -49.94440991 105.42997062 C-49.94092246 97.78992327 -49.94311824 90.1499833 -49.96066093 82.50995255 C-49.97541065 76.00589572 -49.97598241 69.50202191 -49.95859002 62.99796857 C-49.95009988 59.68301752 -49.95006413 56.36866019 -49.96324158 53.05368423 C-49.97646472 49.45154996 -49.96489064 45.85029633 -49.94725037 42.24819946 C-49.95685537 41.21247807 -49.96646038 40.17675667 -49.97635645 39.10964978 C-49.85612597 27.13144634 -45.66154476 18.113164 -37.44604492 9.50793457 C-27.26216363 -0.31481618 -13.19353167 -0.07164203 0 0 Z " fill="#FE4B55" transform="translate(49.446044921875,87.4920654296875)"/>
<path d="M0 0 C49.42047618 -0.16121214 49.42047618 -0.16121214 70.15234375 -0.1953125 C84.45920557 -0.21903399 98.76597306 -0.24689967 113.07275391 -0.30175781 C123.49296334 -0.34169409 133.91309614 -0.36744909 144.33337998 -0.37635398 C149.84810008 -0.3815572 155.36260099 -0.39374006 160.87725067 -0.42292023 C166.07452177 -0.45019658 171.27148469 -0.45842035 176.46882057 -0.45243073 C178.36983989 -0.45352551 180.27087019 -0.46140618 182.17182732 -0.4768219 C195.97148965 -0.58318135 207.82064481 0.23297604 218.73828125 9.65625 C249.43948986 41.47097395 230 120.34840085 230 142 C154.1 142 78.2 142 0 142 C0 95.14 0 48.28 0 0 Z " fill="#F5F3F3" transform="translate(282,88)"/>
<path d="M0 0 C1.96233599 0.0011301 3.92467366 0.00049146 5.88700867 -0.00177002 C11.18173425 -0.00291176 16.47609305 0.0205098 21.77073383 0.04852581 C27.31602909 0.07362986 32.86133393 0.07588854 38.40667725 0.08062744 C48.89302611 0.09303083 59.379207 0.12581666 69.86548209 0.1660254 C84.04584205 0.21921175 98.22624834 0.24070989 112.40668297 0.26403427 C134.72795338 0.30158001 157.04886943 0.3812885 179.37011719 0.45410156 C179.37011719 47.31410156 179.37011719 94.17410156 179.37011719 142.45410156 C103.47011719 142.45410156 27.57011719 142.45410156 -50.62988281 142.45410156 C-50.62988281 22.02336152 -50.62988281 22.02336152 -38.62988281 9.45410156 C-28.13054521 -0.6729191 -13.5615512 -0.10997676 0 0 Z " fill="#F5F3F3" transform="translate(50.6298828125,87.5458984375)"/>
<path d="M0 0 C75.9 0 151.8 0 230 0 C230 119.40016234 230 119.40016234 220.26953125 130.7734375 C212.93293005 137.97113575 202.91470023 142.30085413 192.62981838 142.38724393 C191.88173524 142.3785054 191.1336521 142.36976688 190.36289978 142.36076355 C189.54258304 142.36332682 188.72226629 142.3658901 187.87709147 142.36853105 C185.1547526 142.37343462 182.4329803 142.35703327 179.71069336 142.34057617 C177.74879977 142.33972916 175.78690524 142.3402065 173.82501221 142.34190369 C168.51777917 142.34276215 163.21075078 142.32516035 157.90356517 142.30418181 C152.35023593 142.2853903 146.79690166 142.28366262 141.24354553 142.28010559 C130.73588266 142.2707924 120.22831376 142.24618841 109.72069222 142.21605712 C95.51581225 142.17621048 81.31090647 142.16005237 67.10598469 142.14255047 C44.73725278 142.11436684 22.36871914 142.05459237 0 142 C0 95.14 0 48.28 0 0 Z " fill="#F5F3F3" transform="translate(282,282)"/>
<path d="M0 0 C75.9 0 151.8 0 230 0 C230 46.86 230 93.72 230 142 C180.53922078 142.16121214 180.53922078 142.16121214 159.79882812 142.1953125 C145.48309593 142.21903887 131.16745798 142.24691823 116.85180664 142.30175781 C106.42538087 142.34167967 95.99903161 142.36744568 85.57253152 142.37635398 C80.05393106 142.38155963 74.53554946 142.39375811 69.01701927 142.42292023 C63.81728899 142.45017373 58.61786667 142.45842491 53.41807175 142.45243073 C51.51501985 142.45352652 49.6119571 142.46142092 47.70896721 142.4768219 C34.00575953 142.58223482 21.7652853 141.52540784 11 132 C-18.85333081 98.33004371 0 31.02909275 0 0 Z " fill="#F5F3F3" transform="translate(0,282)"/>
<path d="M0 0 C7.92 0 15.84 0 24 0 C23.855625 2.825625 23.71125 5.65125 23.5625 8.5625 C23.51939697 9.43849854 23.47629395 10.31449707 23.43188477 11.21704102 C23.39377686 11.93045654 23.35566895 12.64387207 23.31640625 13.37890625 C23.27974854 14.0963501 23.24309082 14.81379395 23.20532227 15.55297852 C22.9398893 18.71639658 22.44894696 21.8573713 22 25 C34.375 24.01 34.375 24.01 47 23 C47 30.92 47 38.84 47 47 C38.75 46.34 30.5 45.68 22 45 C22.65376716 50.60904391 22.65376716 50.60904391 23.31640625 56.21704102 C23.39761719 56.93045654 23.47882813 57.64387207 23.5625 58.37890625 C23.64628906 59.0963501 23.73007812 59.81379395 23.81640625 60.55297852 C24.05205049 63.6937528 24 66.85039823 24 70 C16.08 70 8.16 70 0 70 C0.60872565 61.57929514 1.61651372 53.32778149 3 45 C1.70964844 45.144375 0.41929687 45.28875 -0.91015625 45.4375 C-2.62758266 45.62519688 -4.3450318 45.81268586 -6.0625 46 C-6.91005859 46.09539062 -7.75761719 46.19078125 -8.63085938 46.2890625 C-9.46552734 46.37929688 -10.30019531 46.46953125 -11.16015625 46.5625 C-11.91949463 46.64628906 -12.67883301 46.73007812 -13.46118164 46.81640625 C-16.63309385 47.04578196 -19.819805 47 -23 47 C-23 39.08 -23 31.16 -23 23 C-14.63382793 23.53239277 -6.34617835 24.16538217 2 25 C1.34 16.75 0.68 8.5 0 0 Z " fill="#FE4E58" transform="translate(385,318)"/>
<path d="M0 0 C7.92 0 15.84 0 24 0 C23.34 8.25 22.68 16.5 22 25 C27.98305971 24.34535991 27.98305971 24.34535991 33.96533203 23.68359375 C35.10010986 23.56177734 35.10010986 23.56177734 36.2578125 23.4375 C37.0223877 23.35371094 37.78696289 23.26992187 38.57470703 23.18359375 C41.37579047 22.9715528 44.19090231 23 47 23 C47 30.92 47 38.84 47 47 C38.75 46.34 30.5 45.68 22 45 C22.99 57.375 22.99 57.375 24 70 C16.08 70 8.16 70 0 70 C0.144375 67.36 0.28875 64.72 0.4375 62 C0.48060303 61.1853125 0.52370605 60.370625 0.56811523 59.53125 C0.60622314 58.8609375 0.64433105 58.190625 0.68359375 57.5 C0.72025146 56.8296875 0.75690918 56.159375 0.79467773 55.46875 C1.08581332 51.96819942 1.56431108 48.48551136 2 45 C-10.375 45.99 -10.375 45.99 -23 47 C-23 39.08 -23 31.16 -23 23 C-20.174375 23.144375 -17.34875 23.28875 -14.4375 23.4375 C-13.56150146 23.48060303 -12.68550293 23.52370605 -11.78295898 23.56811523 C-7.133673 23.81646219 -2.59799865 24.26555458 2 25 C1.855625 23.865625 1.71125 22.73125 1.5625 21.5625 C1.37474666 20.04169792 1.18726097 18.52086278 1 17 C0.90460938 16.25621094 0.80921875 15.51242188 0.7109375 14.74609375 C0.62070313 14.00488281 0.53046875 13.26367188 0.4375 12.5 C0.31181641 11.49453125 0.31181641 11.49453125 0.18359375 10.46875 C-0.07524155 6.98824123 0 3.49011992 0 0 Z " fill="#FE4E57" transform="translate(103,124)"/>
<path d="M0 0 C7.92 0 15.84 0 24 0 C23.855625 3.01125 23.71125 6.0225 23.5625 9.125 C23.51939697 10.06230957 23.47629395 10.99961914 23.43188477 11.96533203 C23.3747229 13.10010986 23.3747229 13.10010986 23.31640625 14.2578125 C23.27974854 15.0223877 23.24309082 15.78696289 23.20532227 16.57470703 C22.96599943 19.40161906 22.46640393 22.20157644 22 25 C34.375 24.01 34.375 24.01 47 23 C47 30.92 47 38.84 47 47 C38.75 46.34 30.5 45.68 22 45 C22.65376716 50.60904391 22.65376716 50.60904391 23.31640625 56.21704102 C23.39761719 56.93045654 23.47882813 57.64387207 23.5625 58.37890625 C23.64628906 59.0963501 23.73007812 59.81379395 23.81640625 60.55297852 C24.05205049 63.6937528 24 66.85039823 24 70 C16.08 70 8.16 70 0 70 C0.66 61.75 1.32 53.5 2 45 C-10.375 45.99 -10.375 45.99 -23 47 C-23 39.08 -23 31.16 -23 23 C-19.04 23.2165625 -19.04 23.2165625 -15 23.4375 C-13.77796875 23.50215454 -13.77796875 23.50215454 -12.53125 23.56811523 C-11.52578125 23.6252771 -11.52578125 23.6252771 -10.5 23.68359375 C-9.8296875 23.72025146 -9.159375 23.75690918 -8.46875 23.79467773 C-4.96819942 24.08581332 -1.48551136 24.56431108 2 25 C1.34 16.75 0.68 8.5 0 0 Z " fill="#FE4E57" transform="translate(385,124)"/>
<path d="M0 0 C7.92 0 15.84 0 24 0 C23.34 8.25 22.68 16.5 22 25 C34.375 24.01 34.375 24.01 47 23 C47 30.92 47 38.84 47 47 C38.65642053 46.42173212 30.32541655 45.79856036 22 45 C22.10828125 46.19882812 22.10828125 46.19882812 22.21875 47.421875 C22.85743099 54.97960003 23.09137397 62.41596013 23 70 C15.41 70 7.82 70 0 70 C0.144375 67.36 0.28875 64.72 0.4375 62 C0.48060303 61.1853125 0.52370605 60.370625 0.56811523 59.53125 C0.84559986 54.65033644 1.34483874 49.84489 2 45 C0.78183594 45.144375 -0.43632813 45.28875 -1.69140625 45.4375 C-3.31508014 45.62520796 -4.93877943 45.8126963 -6.5625 46 C-7.76229492 46.14308594 -7.76229492 46.14308594 -8.98632812 46.2890625 C-9.77587891 46.37929688 -10.56542969 46.46953125 -11.37890625 46.5625 C-12.0963501 46.64628906 -12.81379395 46.73007812 -13.55297852 46.81640625 C-16.6937528 47.05205049 -19.85039823 47 -23 47 C-23 39.08 -23 31.16 -23 23 C-14.75 23.66 -6.5 24.32 2 25 C1.34723072 19.76493717 1.34723072 19.76493717 0.68359375 14.53125 C0.60238281 13.8609375 0.52117187 13.190625 0.4375 12.5 C0.31181641 11.49453125 0.31181641 11.49453125 0.18359375 10.46875 C-0.07524155 6.98824123 0 3.49011992 0 0 Z " fill="#FE4D57" transform="translate(103,318)"/>
</svg>
